<?xml version="1.0" encoding="UTF-8"?>
<svg xmlns="http://www.w3.org/2000/svg" xmlns:xlink="http://www.w3.org/1999/xlink" version="1.1" viewBox="0 0 345 143">
  <defs>
    <style>
      .cls-1 {
        fill: none;
      }

      .cls-2 {
        fill: #1e1e1e;
      }

      .cls-3 {
        fill: #343434;
      }

      .cls-4 {
        fill: #59a352;
      }

      .cls-5 {
        clip-path: url(#clippath);
      }

      .cls-6 {
        fill: #ececec;
      }
    </style>
    <clipPath id="clippath">
      <rect class="cls-1" width="345" height="143"/>
    </clipPath>
  </defs>
  <!-- Generator: Adobe Illustrator 28.6.0, SVG Export Plug-In . SVG Version: 1.2.0 Build 709)  -->
  <g>
    <g id="Layer_1">
      <g id="Layer_1-2" data-name="Layer_1">
        <g class="cls-5">
          <g>
            <path class="cls-4" d="M149.4,135.5c-1.6,0-2.8-.4-3.7-1.3-.9-.9-1.3-2.1-1.3-3.7v-28.5c0-1.6.4-2.9,1.3-3.7.9-.9,2.1-1.3,3.7-1.3h13.3c4.3,0,7.7,1.1,10,3.3,2.4,2.2,3.6,5.2,3.6,9.1s-1.2,6.9-3.6,9.2c-2.3,2.2-5.7,3.3-10,3.3h-8.4v8.6c0,1.6-.4,2.8-1.2,3.7s-2.1,1.3-3.7,1.3h0ZM154.4,114.3h6.6c1.9,0,3.3-.4,4.3-1.2,1-.8,1.5-2.1,1.5-3.7s-.5-2.9-1.5-3.7c-1-.8-2.4-1.2-4.3-1.2h-6.6v9.7h0ZM185.9,135.5c-1.6,0-2.8-.4-3.7-1.3-.9-.9-1.3-2.1-1.3-3.7v-28.5c0-1.6.4-2.9,1.3-3.7.9-.9,2.1-1.3,3.7-1.3h13.3c4.3,0,7.7,1.1,10,3.2,2.4,2.1,3.6,5,3.6,8.7s-.5,4.5-1.6,6.3c-1,1.8-2.6,3.1-4.6,4.1-2,.9-4.4,1.4-7.3,1.4l.4-1h2.6c1.5,0,2.9.4,4.1,1.1,1.2.7,2.2,1.8,3,3.3l2.7,4.9c.6,1,.8,2.1.8,3.1s-.4,1.8-1.2,2.4c-.7.6-1.8.9-3.2.9s-2.6-.3-3.5-.9c-.9-.6-1.6-1.5-2.3-2.7l-4.9-9c-.4-.8-1-1.3-1.7-1.6-.6-.3-1.4-.5-2.3-.5h-3v9.7c0,1.6-.4,2.8-1.2,3.7s-2.1,1.3-3.7,1.3h0ZM190.9,113.8h6.6c1.9,0,3.4-.4,4.4-1.1,1-.8,1.5-1.9,1.5-3.5s-.5-2.6-1.5-3.4-2.5-1.2-4.4-1.2h-6.6v9.2ZM237.2,135.6c-3.9,0-7.2-.8-10.2-2.4-2.9-1.7-5.2-4-6.8-6.9-1.6-3-2.4-6.4-2.4-10.3s.4-5.6,1.3-8c.9-2.4,2.2-4.5,3.9-6.2s3.8-3,6.2-3.9,5-1.4,7.9-1.4,7.2.8,10.1,2.4c2.9,1.6,5.2,3.9,6.8,6.9,1.6,2.9,2.4,6.4,2.4,10.3s-.5,5.6-1.4,8-2.2,4.5-3.9,6.3c-1.7,1.7-3.7,3.1-6.1,4-2.4.9-5,1.3-7.9,1.3h0ZM237.2,127.3c1.9,0,3.5-.4,4.9-1.3s2.4-2.2,3.1-3.9c.7-1.7,1.1-3.7,1.1-6.1,0-3.6-.8-6.3-2.4-8.3-1.6-2-3.8-3-6.6-3s-3.5.4-4.9,1.3c-1.3.9-2.4,2.1-3.1,3.8-.7,1.7-1.1,3.7-1.1,6.1,0,3.6.8,6.4,2.4,8.4,1.6,2,3.8,3,6.6,3Z"/>
            <path class="cls-6" d="M280.5,102h40c8.6,0,15.5,6.9,15.5,15.5h0c0,8.6-6.9,15.5-15.5,15.5h-40c-8.6,0-15.5-6.9-15.5-15.5h0c0-8.6,6.9-15.5,15.5-15.5Z"/>
            <path class="cls-2" d="M282.5,124.2c-.5,0-1.1,0-1.7,0-.6,0-1.1-.2-1.6-.3-.5,0-1-.3-1.4-.5s-.6-.4-.8-.7c-.1-.3-.2-.6-.2-.9s.2-.6.3-.8c.2-.3.4-.4.7-.5.3,0,.7,0,1,0,.5.2,1.1.4,1.7.6.6,0,1.2.2,1.8.2.9,0,1.5,0,1.8-.3.4-.2.5-.5.5-.9s-.1-.6-.4-.7c-.2-.2-.7-.3-1.3-.5l-2.3-.5c-1.3-.3-2.2-.7-2.9-1.4-.6-.7-.9-1.5-.9-2.6s.1-1.3.4-1.9.7-1.1,1.2-1.5,1.2-.7,1.9-.9c.7-.2,1.5-.3,2.4-.3s1.4,0,2.1.2c.7,0,1.3.4,1.9.7.3.2.5.4.7.7s.2.6.2.9-.1.6-.3.8c-.2.2-.4.4-.7.5-.3,0-.6,0-1.1-.2-.4-.2-.8-.3-1.3-.4-.5,0-.9,0-1.4,0s-.9,0-1.3.2c-.3,0-.6.3-.8.5-.2.2-.3.5-.3.7s.1.5.3.7c.2.2.7.3,1.3.5l2.3.5c1.3.3,2.3.7,2.9,1.4.6.6,1,1.5,1,2.5s-.1,1.3-.4,1.9-.7,1-1.2,1.4-1.1.7-1.9.9c-.7.2-1.6.3-2.5.3l.3-.2ZM293.5,124.2c-.8,0-1.4,0-2-.4s-1-.7-1.4-1.1c-.3-.5-.5-1.1-.5-1.7s.2-1.3.6-1.7c.4-.4,1-.7,1.8-.9.8-.2,1.9-.3,3.3-.3h1.1v1.7h-1.1c-.5,0-1,0-1.3,0-.3,0-.6.2-.7.3-.2,0-.2.3-.2.6s.1.6.3.8c.2.2.5.3,1,.3s.6,0,.9-.2c.3,0,.5-.3.6-.6.2-.3.2-.6.2-.9v-2.3c0-.5-.1-.8-.4-1-.2-.2-.7-.3-1.3-.3s-.7,0-1.1,0c-.4,0-.8.2-1.3.4-.4,0-.7.2-.9,0-.3,0-.5-.3-.6-.5s-.2-.5-.2-.7c0-.3.1-.5.3-.8.2-.2.4-.4.8-.6.6-.2,1.2-.4,1.8-.5.5,0,1,0,1.5,0,1.1,0,2,.2,2.7.5s1.3.8,1.6,1.4c.4.6.5,1.5.5,2.5v4c0,.6-.1,1-.4,1.3s-.7.5-1.2.5-1-.2-1.3-.5-.4-.8-.4-1.3v-.5.3c0,.4-.1.8-.3,1.1-.2.3-.6.5-.9.7-.4.2-.8.3-1.3.3h-.2ZM304.9,124.2c-.8,0-1.4,0-2-.4s-1-.7-1.4-1.1c-.3-.5-.5-1.1-.5-1.7s.2-1.3.6-1.7c.4-.4,1-.7,1.8-.9.8-.2,1.9-.3,3.3-.3h1.1v1.7h-1.1c-.5,0-1,0-1.3,0-.3,0-.6.2-.7.3-.2,0-.2.3-.2.6s.1.6.3.8c.2.2.5.3,1,.3s.6,0,.9-.2c.3,0,.5-.3.6-.6.2-.3.2-.6.2-.9v-2.3c0-.5-.1-.8-.4-1-.2-.2-.7-.3-1.3-.3s-.7,0-1.1,0c-.4,0-.8.2-1.3.4-.4,0-.7.2-.9,0-.3,0-.5-.3-.6-.5s-.2-.5-.2-.7c0-.3,0-.5.3-.8.2-.2.4-.4.8-.6.6-.2,1.2-.4,1.8-.5.5,0,1,0,1.5,0,1.1,0,2,.2,2.7.5s1.3.8,1.6,1.4c.4.6.5,1.5.5,2.5v4c0,.6-.1,1-.4,1.3s-.7.5-1.2.5-1-.2-1.3-.5-.4-.8-.4-1.3v-.5.3c0,.4,0,.8-.3,1.1-.2.3-.6.5-.9.7-.4.2-.8.3-1.3.3h-.2ZM318.3,124.2c-.5,0-1.1,0-1.7,0-.6,0-1.1-.2-1.6-.3-.5,0-1-.3-1.4-.5s-.6-.4-.8-.7c-.1-.3-.2-.6-.2-.9s.2-.6.3-.8c.2-.3.4-.4.7-.5.3,0,.7,0,1,0,.5.2,1.1.4,1.7.6.6,0,1.2.2,1.8.2.9,0,1.5,0,1.8-.3.4-.2.5-.5.5-.9s-.1-.6-.4-.7c-.2-.2-.7-.3-1.3-.5l-2.3-.5c-1.3-.3-2.2-.7-2.9-1.4-.6-.7-.9-1.5-.9-2.6s.1-1.3.4-1.9.7-1.1,1.2-1.5,1.2-.7,1.9-.9c.7-.2,1.5-.3,2.4-.3s1.4,0,2.1.2c.7,0,1.3.4,1.9.7.3.2.5.4.7.7.1.3.2.6.2.9s-.1.6-.3.8c-.2.2-.4.4-.7.5-.3,0-.6,0-1.1-.2-.4-.2-.8-.3-1.3-.4-.5,0-.9,0-1.4,0s-.9,0-1.3.2c-.3,0-.6.3-.8.5-.2.2-.3.5-.3.7s.1.5.3.7c.2.2.7.3,1.3.5l2.3.5c1.3.3,2.3.7,2.9,1.4.6.6,1,1.5,1,2.5s-.1,1.3-.4,1.9-.7,1-1.2,1.4-1.1.7-1.9.9c-.7.2-1.6.3-2.5.3l.3-.2Z"/>
          </g>
        </g>
      </g>
      <g>
        <path class="cls-3" d="M57.5,8.6v14.3h-19.4v58.9h-17.8V22.8H.9v-14.3h56.6Z"/>
        <path class="cls-3" d="M66.3,36.8c2.3-4.5,5.3-8,9.2-10.4,3.9-2.4,8.2-3.7,13-3.7s7.7.8,10.8,2.5c3.1,1.7,5.5,3.9,7.1,6.6v-8.2h17.8v58.2h-17.8v-8.2c-1.7,2.7-4.2,4.9-7.2,6.6-3.1,1.7-6.7,2.5-10.8,2.5s-9-1.2-12.9-3.7c-3.9-2.5-7-6-9.2-10.5-2.3-4.6-3.4-9.8-3.4-15.8s1.1-11.2,3.4-15.7ZM102.8,42.1c-2.5-2.6-5.5-3.9-9-3.9s-6.6,1.3-9,3.8c-2.5,2.5-3.7,6-3.7,10.5s1.2,8,3.7,10.6c2.5,2.6,5.5,3.9,9,3.9s6.6-1.3,9-3.9c2.5-2.6,3.7-6.1,3.7-10.5s-1.2-8-3.7-10.5Z"/>
        <path class="cls-3" d="M162.3,25.2c3.1-1.7,6.7-2.5,10.7-2.5s9.1,1.2,13,3.7c3.9,2.4,7,5.9,9.2,10.4,2.3,4.5,3.4,9.8,3.4,15.7s-1.1,11.2-3.4,15.8c-2.3,4.6-5.3,8.1-9.2,10.5-3.9,2.5-8.2,3.7-13,3.7s-7.7-.8-10.7-2.5c-3.1-1.6-5.5-3.8-7.2-6.5v8.1h-17.8V4.6h17.8v27.2c1.7-2.7,4.1-4.9,7.2-6.6ZM176.8,42.1c-2.5-2.5-5.5-3.8-9.1-3.8s-6.6,1.3-9,3.9c-2.5,2.6-3.7,6.1-3.7,10.5s1.2,8,3.7,10.5c2.5,2.6,5.5,3.9,9,3.9s6.6-1.3,9.1-3.9,3.8-6.1,3.8-10.6-1.2-7.9-3.7-10.5Z"/>
        <path class="cls-3" d="M225.9,4.6v77.2h-17.8V4.6h17.8Z"/>
        <path class="cls-3" d="M293.4,56.9h-40.4c.3,3.6,1.4,6.4,3.5,8.3,2,1.9,4.6,2.9,7.6,2.9,4.4,0,7.5-1.9,9.3-5.6h19c-1,3.8-2.7,7.3-5.3,10.3-2.5,3.1-5.7,5.5-9.5,7.2-3.8,1.7-8.1,2.6-12.8,2.6s-10.8-1.2-15.2-3.6c-4.5-2.4-7.9-5.9-10.4-10.4-2.5-4.5-3.8-9.8-3.8-15.9s1.2-11.3,3.7-15.9c2.5-4.5,5.9-8,10.4-10.4,4.4-2.4,9.6-3.7,15.3-3.7s10.6,1.2,15,3.5c4.4,2.4,7.8,5.7,10.3,10.1,2.5,4.4,3.7,9.5,3.7,15.3s-.1,3.4-.3,5.2ZM275.4,47c0-3.1-1-5.5-3.1-7.3-2.1-1.8-4.7-2.7-7.8-2.7s-5.5.9-7.6,2.6c-2.1,1.7-3.3,4.2-3.8,7.4h22.3Z"/>
        <path class="cls-3" d="M319.8,67.1h25.2v14.7h-45.2v-14.2l24.2-29.3h-24v-14.7h44.4v14.2l-24.7,29.3Z"/>
      </g>
    </g>
  </g>
</svg>